<?xml version="1.0" standalone="no"?>
<!DOCTYPE svg PUBLIC "-//W3C//DTD SVG 20010904//EN"
 "http://www.w3.org/TR/2001/REC-SVG-20010904/DTD/svg10.dtd">
<svg version="1.0" xmlns="http://www.w3.org/2000/svg"
 width="1210.000000pt" height="1210.000000pt" viewBox="0 0 1210.000000 1210.000000"
 preserveAspectRatio="xMidYMid meet">
<metadata>
Created by potrace 1.14, written by Peter Selinger 2001-2017
</metadata>
<g transform="translate(0.000000,1210.000000) scale(0.100000,-0.100000)"
fill="#000000" stroke="none">
<path d="M6888 8915 c-2 -2 -42 -6 -88 -10 -120 -8 -248 -22 -294 -31 -11 -2
-42 -6 -70 -9 -43 -5 -91 -14 -276 -49 -330 -63 -799 -213 -1135 -364 -192
-86 -468 -226 -555 -281 -8 -6 -40 -24 -70 -42 -169 -97 -511 -340 -665 -472
-337 -289 -595 -571 -789 -862 -83 -123 -145 -224 -175 -282 l-20 -40 240 1
c140 0 239 4 239 10 0 5 15 32 34 60 19 28 34 54 35 59 0 4 10 17 21 29 11 12
20 28 20 35 0 8 4 12 8 9 5 -3 17 9 27 27 10 18 29 46 42 62 13 17 27 35 31
40 4 6 24 31 44 56 21 26 34 50 30 54 -4 3 -2 5 3 3 6 -2 10 -1 11 2 0 3 17
23 37 44 20 21 37 43 37 48 0 5 4 7 9 4 5 -4 15 7 22 23 7 16 16 28 19 27 3
-2 15 7 28 20 12 13 21 24 19 24 -3 0 38 43 91 95 52 52 99 95 104 95 5 0 6 5
3 10 -3 6 -2 10 3 10 5 0 30 20 55 45 26 25 49 45 52 45 11 0 43 39 37 45 -4
4 -2 5 4 3 9 -2 77 50 129 100 8 6 18 12 23 12 5 0 21 14 36 32 14 17 26 28
26 22 0 -5 10 2 21 16 11 14 18 18 14 10 -4 -8 2 -6 12 5 10 11 30 26 45 34
15 8 25 18 23 22 -3 4 5 11 17 15 12 3 28 12 35 18 33 29 43 36 53 36 6 0 13
7 16 15 4 8 12 15 18 15 7 0 22 9 34 20 12 11 25 21 29 21 12 2 117 72 125 84
5 6 8 6 8 0 0 -5 7 -1 15 9 8 11 15 17 15 13 0 -8 102 53 112 67 4 6 8 8 8 4
0 -4 22 6 49 22 26 17 53 30 58 30 6 0 16 7 23 15 7 8 21 15 31 15 11 0 19 4
19 8 0 9 96 56 104 50 2 -2 12 4 22 13 11 9 29 20 42 23 12 4 22 12 22 17 0 5
3 8 8 7 15 -3 62 15 62 24 0 5 5 6 10 3 6 -3 10 -1 10 4 0 6 3 10 8 9 11 -3
82 25 82 32 0 4 6 7 13 7 6 0 28 7 47 15 30 14 64 27 80 33 3 1 19 8 35 15 17
7 35 14 42 16 7 1 47 16 89 33 42 17 85 31 95 31 11 0 19 4 19 8 0 5 6 9 13
10 18 1 49 9 80 21 15 6 27 8 27 5 0 -2 13 2 30 11 16 8 32 15 35 15 3 0 6 0
8 1 4 1 31 8 53 12 11 3 43 12 71 20 28 9 54 13 57 10 3 -4 6 -2 6 3 0 5 8 10
18 11 9 0 28 4 42 7 57 13 86 20 100 22 8 1 26 5 40 8 36 9 81 18 110 21 14 2
36 6 50 10 26 6 62 12 128 20 20 2 57 7 82 11 246 34 759 39 975 9 17 -2 50
-7 75 -10 25 -3 59 -7 75 -10 17 -3 44 -7 60 -10 17 -2 30 -4 30 -5 0 -3 17
-6 65 -14 14 -2 25 -5 25 -6 0 -1 7 -3 15 -5 8 -1 44 -11 80 -20 36 -9 72 -19
80 -20 8 -2 15 -4 15 -5 0 -1 7 -3 15 -5 8 -2 34 -10 58 -19 23 -8 42 -13 42
-10 0 2 11 -3 25 -12 14 -9 25 -13 25 -10 0 4 12 -2 27 -11 15 -10 30 -17 33
-17 5 2 27 -6 78 -28 15 -6 30 -11 35 -10 4 1 7 -2 7 -8 0 -5 9 -10 20 -10 11
0 20 -3 20 -8 0 -7 95 -54 106 -52 4 1 10 -2 13 -7 10 -13 91 -64 91 -57 0 4
8 -2 18 -14 10 -11 24 -22 31 -24 7 -2 26 -16 43 -31 17 -15 33 -25 36 -23 2
3 13 -5 23 -17 10 -12 18 -19 19 -15 0 4 17 -9 38 -30 21 -20 79 -75 128 -122
49 -47 80 -78 69 -70 -11 8 -4 -3 15 -26 79 -92 90 -106 90 -114 0 -5 8 -15
18 -22 9 -7 18 -20 20 -28 2 -8 7 -17 12 -20 22 -14 164 -321 174 -375 1 -5 5
-15 9 -22 4 -6 9 -24 12 -40 2 -15 8 -46 14 -67 5 -22 9 -42 9 -45 0 -3 1 -8
2 -11 6 -17 14 -73 25 -175 8 -66 8 -276 0 -335 -9 -82 -25 -183 -31 -201 -4
-14 17 -16 193 -15 l198 1 7 40 c10 57 2 409 -11 475 -6 30 -13 71 -16 90 -23
143 -101 369 -181 525 -243 473 -696 856 -1269 1074 -157 59 -325 111 -448
136 -10 2 -27 7 -37 10 -19 6 -24 7 -100 21 -25 4 -47 8 -50 9 -42 10 -158 26
-285 40 -33 4 -76 9 -95 12 -40 6 -666 13 -672 8z"/>
<path d="M1808 6676 c-147 -37 -258 -124 -282 -221 -4 -16 -10 -39 -13 -50 -3
-11 -7 -72 -8 -135 -2 -63 -3 -118 -4 -121 0 -3 -13 -5 -28 -4 -74 5 -80 -13
-73 -215 4 -101 9 -110 65 -107 38 2 46 -1 52 -18 4 -11 7 -146 7 -301 1 -215
4 -285 14 -297 11 -13 41 -15 180 -16 92 -1 173 3 181 8 10 7 12 34 7 132 -6
119 -16 336 -19 447 l-2 53 90 -2 c50 -2 96 0 102 4 8 5 11 57 10 165 l-2 157
-105 1 -105 1 0 88 c-1 87 0 89 33 122 18 18 36 32 40 29 4 -2 34 1 67 8 59
12 60 12 60 46 0 19 -5 62 -12 95 -7 33 -15 78 -19 100 -3 22 -8 43 -11 48 -9
14 -139 5 -225 -17z"/>
<path d="M7530 6688 c-89 -13 -200 -52 -200 -70 0 -5 -4 -7 -9 -4 -17 11 -128
-100 -135 -137 -2 -7 -6 -19 -9 -27 -17 -47 -24 -110 -23 -202 l2 -103 -26 1
c-47 2 -80 -16 -81 -44 -1 -44 2 -205 6 -232 1 -14 3 -30 4 -37 1 -7 18 -11
47 -10 28 1 50 -3 57 -11 8 -10 11 -106 12 -307 0 -161 4 -297 8 -302 10 -9
319 -17 353 -9 26 7 25 -3 9 396 -4 91 -8 184 -8 207 -1 22 1 39 4 37 7 -4
148 -6 180 -2 15 1 16 21 15 162 l-1 161 -107 0 c-101 0 -107 1 -107 20 0 11
0 40 -1 65 0 49 2 63 17 100 15 36 31 46 83 56 25 4 48 9 53 10 4 1 16 2 26 3
26 1 34 31 22 78 -5 21 -12 54 -15 73 -23 145 -19 138 -73 137 -27 -1 -73 -5
-103 -9z"/>
<path d="M10495 6630 c-3 -5 -4 -24 -1 -42 28 -165 33 -422 25 -1118 -1 -129
1 -245 5 -256 9 -28 22 -30 199 -28 106 1 152 5 160 14 9 10 9 11 -2 5 -10 -6
-12 -4 -6 4 4 7 9 263 11 569 2 307 6 582 8 612 2 30 8 99 12 153 l7 97 -206
0 c-124 0 -208 -4 -212 -10z"/>
<path d="M3375 6520 c3 -5 2 -10 -4 -10 -6 0 -9 -66 -8 -176 1 -159 -1 -178
-17 -189 -10 -8 -23 -12 -30 -9 -7 3 -24 1 -38 -5 -25 -9 -25 -10 -23 -129 1
-65 5 -123 8 -129 3 -5 23 -10 43 -11 61 -2 66 -14 64 -143 -2 -63 -4 -168 -5
-234 -3 -144 10 -198 59 -242 91 -84 315 -92 481 -18 31 13 62 30 69 38 8 8
16 47 20 98 3 46 8 93 10 105 8 41 -7 48 -70 36 -89 -18 -140 -15 -177 11 -18
12 -34 29 -36 37 -10 39 -12 269 -3 286 9 16 23 18 131 16 l121 -2 0 88 c0 48
3 117 6 155 5 53 4 67 -7 68 -21 1 -75 1 -162 -1 -43 -2 -82 1 -87 6 -12 12
-13 64 -5 196 3 58 2 109 -2 111 -5 3 -40 9 -78 12 -38 4 -78 9 -90 11 -11 2
-33 7 -50 10 -16 2 -46 9 -65 14 -45 13 -63 13 -55 0z"/>
<path d="M7896 6503 c-4 -15 -6 -99 -5 -186 1 -87 -2 -162 -7 -166 -5 -5 -25
-11 -45 -14 -20 -2 -41 -7 -46 -10 -10 -7 -10 -243 0 -254 5 -4 24 -8 44 -10
20 -1 42 -7 49 -15 17 -17 18 -33 10 -284 -5 -149 -4 -214 3 -219 6 -3 9 -11
5 -16 -10 -18 44 -87 88 -112 24 -14 66 -30 93 -35 49 -10 175 -9 224 2 68 15
131 38 131 47 0 6 4 8 8 5 15 -9 71 32 70 51 0 16 12 182 16 208 1 11 -55 12
-99 1 -46 -11 -117 -7 -142 10 -12 7 -28 24 -34 36 -15 27 -22 274 -10 296 7
12 32 15 130 14 l121 -1 0 27 c0 15 2 84 4 155 4 124 3 127 -18 128 -54 2
-203 -2 -217 -6 -21 -7 -36 47 -29 105 3 25 5 83 5 130 0 68 -3 85 -15 86 -8
0 -36 4 -61 8 -26 4 -62 9 -80 10 -19 2 -52 8 -74 14 -22 5 -56 13 -77 16 -34
6 -37 5 -42 -21z"/>
<path d="M5599 6247 c-93 -23 -109 -29 -124 -43 -8 -8 -15 -13 -15 -9 0 10
-63 -28 -87 -53 -13 -13 -23 -21 -23 -18 0 9 -32 -26 -56 -60 -37 -53 -52
-105 -49 -175 4 -84 32 -133 131 -236 23 -23 39 -45 36 -47 -3 -3 3 -8 12 -12
9 -3 14 -9 11 -14 -2 -4 0 -21 5 -38 5 -20 5 -34 -1 -38 -5 -3 -7 -9 -5 -13 3
-4 -6 -14 -19 -21 -14 -7 -25 -17 -25 -21 0 -4 -19 -11 -42 -15 -48 -9 -57
-11 -60 -13 -2 -1 -20 -4 -42 -6 -21 -2 -40 -6 -43 -8 -10 -11 13 -64 59 -135
75 -115 84 -123 132 -117 57 8 145 34 181 53 16 9 33 15 38 14 4 -1 7 1 7 6 0
4 13 13 28 20 36 15 120 92 124 112 2 8 7 18 11 21 5 3 9 12 11 20 1 8 6 24
10 37 16 47 13 108 -6 167 -11 33 -23 62 -27 65 -4 3 -12 13 -17 22 -5 9 -32
41 -60 70 -81 84 -99 139 -61 188 22 29 87 52 143 51 29 0 56 4 59 9 7 12 -53
131 -99 195 -39 54 -62 61 -137 42z"/>
<path d="M2590 6213 c-106 -14 -218 -64 -280 -124 -72 -70 -129 -175 -147
-272 -12 -64 -10 -216 2 -264 20 -73 36 -113 46 -113 4 0 6 -7 3 -15 -4 -8 -2
-15 3 -15 6 0 14 -9 19 -20 14 -29 97 -113 130 -130 16 -8 31 -17 34 -20 10
-10 56 -30 110 -47 92 -29 280 -21 360 14 19 9 38 17 41 17 18 3 108 69 137
100 94 104 131 203 136 366 7 245 -148 459 -370 511 -49 11 -178 18 -224 12z
m179 -345 c11 -10 24 -18 28 -18 8 0 44 -72 50 -100 8 -42 4 -109 -11 -144
-46 -111 -173 -152 -264 -86 -116 84 -115 279 2 356 56 36 153 32 195 -8z"/>
<path d="M4528 6215 c-1 -1 -27 -6 -57 -9 -30 -4 -59 -10 -65 -15 -6 -4 -24
-11 -40 -15 -15 -4 -34 -12 -42 -19 -7 -7 -30 -23 -51 -35 -43 -27 -103 -97
-141 -163 -13 -24 -24 -46 -24 -49 0 -3 -5 -16 -10 -30 -15 -38 -18 -66 -22
-179 -2 -58 1 -116 6 -130 6 -14 11 -33 13 -41 6 -38 18 -80 24 -80 3 0 15
-18 25 -41 24 -49 126 -146 186 -177 131 -66 342 -77 460 -24 19 8 38 16 41
16 4 1 28 15 55 33 110 70 194 203 211 331 4 32 6 157 2 202 -2 31 -32 131
-40 136 -5 3 -9 12 -9 20 0 34 -135 184 -165 184 -8 0 -15 4 -15 10 0 12 -55
37 -125 56 -44 13 -208 27 -217 19z m168 -351 c93 -68 100 -243 14 -326 -39
-37 -69 -48 -129 -48 -40 0 -57 6 -99 37 -28 21 -49 40 -47 42 2 2 -3 17 -11
33 -19 36 -25 138 -10 157 6 8 10 16 8 18 -1 2 4 16 12 31 50 96 172 122 262
56z"/>
<path d="M6378 6214 c-2 -1 -21 -5 -42 -8 -98 -16 -212 -81 -271 -157 -16 -22
-38 -48 -47 -60 -10 -12 -15 -26 -12 -30 3 -5 1 -9 -4 -9 -5 0 -20 -33 -33
-72 -19 -59 -23 -94 -23 -183 0 -91 6 -160 14 -160 1 0 3 -8 5 -19 6 -29 27
-76 35 -76 3 0 7 -6 7 -14 0 -22 60 -97 109 -136 104 -83 190 -112 334 -114
166 -1 279 41 382 144 26 26 45 50 41 53 -3 4 -2 7 4 7 15 0 58 86 79 156 23
81 23 239 -1 322 -10 34 -22 62 -28 62 -6 0 -7 3 -4 6 18 18 -123 201 -144
188 -5 -3 -9 -1 -9 5 0 13 -90 62 -101 55 -5 -3 -9 -1 -9 4 0 15 -109 35 -197
37 -46 1 -84 1 -85 -1z m170 -338 c32 -17 72 -70 87 -116 14 -45 8 -117 -13
-158 -11 -22 -18 -43 -15 -46 4 -3 2 -6 -3 -6 -6 0 -19 -8 -30 -18 -47 -42
-125 -54 -188 -28 -39 16 -83 68 -101 118 -14 42 -11 122 6 163 7 17 11 35 10
40 -2 6 0 7 3 4 4 -3 22 9 41 27 57 53 126 60 203 20z"/>
<path d="M9405 6179 c-131 -21 -171 -32 -167 -48 5 -26 24 -160 29 -216 4 -33
6 -277 6 -542 l0 -482 26 -10 c38 -14 320 -9 329 6 5 7 7 48 5 90 -2 43 -4
120 -6 171 -2 51 0 95 4 98 5 3 44 -11 88 -30 85 -38 83 -37 182 -39 65 -1
179 20 179 33 0 4 6 7 14 7 19 0 86 43 86 55 0 6 3 8 7 5 10 -11 88 78 117
133 14 27 23 50 19 50 -5 0 -3 4 3 8 41 26 56 266 24 380 -21 75 -41 122 -52
122 -5 0 -8 6 -8 14 0 43 -179 183 -243 190 -13 1 -28 5 -34 9 -42 26 -245 6
-265 -26 -4 -7 -8 -9 -8 -4 0 7 -45 -15 -93 -47 -32 -21 -34 -20 -41 17 -15
85 -15 85 -201 56z m509 -314 c3 3 4 2 2 -1 -2 -3 7 -16 21 -30 34 -34 53 -85
54 -147 2 -52 -25 -157 -39 -157 -4 0 -18 -10 -32 -22 -14 -13 -34 -24 -45
-25 -90 -12 -152 4 -189 47 -13 16 -27 26 -31 22 -4 -4 -5 -2 -4 3 2 6 -3 28
-10 49 -12 36 -12 56 1 184 1 6 5 12 9 12 4 0 16 14 26 30 9 17 23 30 29 30 7
0 14 5 16 11 2 6 28 14 58 18 43 6 63 3 91 -10 20 -10 39 -16 43 -14z"/>
<path d="M8791 5649 c-42 -13 -122 -69 -115 -80 3 -5 0 -9 -6 -9 -17 0 -51
-89 -52 -134 0 -51 18 -120 37 -140 8 -8 15 -18 15 -23 1 -13 81 -69 115 -80
51 -17 175 -4 175 19 0 5 4 7 8 4 5 -3 26 11 47 30 21 19 35 34 31 34 -4 0 2
10 14 22 11 12 19 27 17 32 -2 6 2 21 8 33 20 38 -3 192 -26 177 -5 -3 -9 2
-9 11 0 17 -40 66 -40 49 0 -5 -5 -1 -11 9 -23 40 -141 65 -208 46z"/>
<path d="M2476 4833 c-6 -6 20 -105 58 -216 229 -685 867 -1203 1764 -1432 56
-15 112 -28 125 -31 12 -2 33 -6 47 -10 14 -3 39 -7 55 -10 17 -3 66 -11 110
-19 44 -8 107 -17 140 -21 33 -3 74 -8 90 -10 200 -26 796 -25 957 1 12 2 66
9 118 15 102 12 141 18 180 25 14 3 41 7 60 10 343 56 779 182 1145 330 465
189 846 406 1259 718 84 63 89 68 205 167 199 169 494 471 474 483 -4 3 -132
4 -284 3 l-276 -1 -99 -95 c-611 -586 -1468 -1046 -2344 -1258 -637 -155
-1298 -171 -1855 -47 -118 26 -377 107 -452 140 -97 44 -211 101 -245 122 -21
13 -38 20 -38 16 0 -5 -4 -3 -8 3 -10 15 -99 74 -111 74 -6 0 -11 4 -11 9 0 5
-15 18 -32 30 -42 26 -161 121 -153 121 4 0 -14 17 -39 38 -24 20 -45 40 -45
44 -2 15 -35 47 -43 42 -5 -3 -7 -2 -6 3 3 11 -92 133 -104 133 -5 0 -7 4 -4
9 3 4 -3 19 -14 31 -11 12 -22 31 -25 41 -4 11 -11 19 -16 19 -6 0 -8 4 -5 9
4 5 3 11 -2 13 -16 7 -138 268 -125 268 3 0 0 6 -6 13 -6 8 -8 17 -4 20 3 4 1
7 -6 7 -7 0 -9 5 -6 10 4 6 1 17 -5 25 -7 8 -10 15 -6 15 3 0 1 11 -4 25 -5
14 -12 38 -15 53 -3 15 -8 34 -10 42 -2 8 -4 18 -4 21 -1 6 -378 8 -385 2z"/>
</g>
</svg>
